# xmcd
#
# Track frame offsets: 
#        150
#        11767
#        35222
#        47466
#        72795
#        88009
#        105607
#        119552
#        139378
#        163305
#
# Disc length: 2328 seconds
#
# Revision: 0
# Processed by: cddbd v1.5.2PL0 Copyright (c) Steve Scherf et al.
# Submitted via: ExactAudioCopy v1.3
#
DISCID=8f09160a
DTITLE=Chris Shutters with Special Guest Jimmy Burns - Good Gone Bad
DYEAR=2019
DGENRE=Blues
TTITLE0=Good Gone Bad
TTITLE1=Stop the Train
TTITLE2=Can't Play the Blues Like BB
TTITLE3=Miss Annie Lou
TTITLE4=Unwind
TTITLE5=Poor Boy Blue
TTITLE6=Living in a Dream
TTITLE7=Keep You Satisfied
TTITLE8=No Consideration
TTITLE9=The Book of Life
EXTD=
EXTT0=
EXTT1=
EXTT2=
EXTT3=
EXTT4=
EXTT5=
EXTT6=
EXTT7=
EXTT8=
EXTT9=
PLAYORDER=
